<?xml version="1.0" standalone="no"?>
<!DOCTYPE svg PUBLIC "-//W3C//DTD SVG 20010904//EN"
 "http://www.w3.org/TR/2001/REC-SVG-20010904/DTD/svg10.dtd">
<svg version="1.0" xmlns="http://www.w3.org/2000/svg"
 width="1600.000000pt" height="1200.000000pt" viewBox="0 0 1600.000000 1200.000000"
 preserveAspectRatio="xMidYMid meet">

<g transform="translate(0.000000,1200.000000) scale(0.100000,-0.100000)"
fill="#000000" stroke="none">
<path d="M7216 8170 c-15 -5 -37 -17 -48 -27 -45 -40 -48 -64 -48 -413 l0
-330 243 0 c271 0 309 6 366 62 55 54 74 102 69 178 -4 76 -37 139 -89 168
-19 11 -27 22 -23 32 32 74 37 102 25 154 -14 63 -64 127 -125 158 -36 19 -59
22 -191 25 -82 1 -163 -2 -179 -7z"/>
<path d="M8445 8173 c-10 -3 -30 -12 -43 -21 -33 -22 -322 -600 -322 -644 0
-76 64 -128 159 -128 l50 0 92 180 c51 99 95 180 99 180 3 0 46 -81 95 -180
l90 -180 53 0 c30 0 70 7 88 16 38 18 74 76 74 118 0 33 -281 595 -311 623
-39 36 -79 47 -124 36z"/>
<path d="M7120 6585 l0 -385 89 0 c74 0 92 3 115 21 42 33 50 58 56 162 l5 97
99 -116 c131 -151 146 -164 202 -164 63 0 102 23 125 73 17 38 19 69 19 370
l0 327 -83 0 c-148 0 -187 -42 -187 -198 l0 -94 -115 135 c-78 92 -125 139
-146 146 -18 6 -65 11 -105 11 l-74 0 0 -385z"/>
<path d="M8410 6948 c-29 -20 -59 -70 -184 -317 -138 -274 -148 -298 -143
-339 8 -76 72 -122 169 -122 l38 0 94 187 93 187 94 -184 94 -185 62 1 c89 1
137 38 149 116 5 29 -15 75 -145 336 -104 208 -159 307 -176 318 -43 28 -105
29 -145 2z"/>
<path d="M8423 5810 c-42 -18 -45 -23 -193 -319 -101 -204 -150 -311 -150
-333 0 -76 64 -128 159 -128 l49 0 93 180 c51 99 96 180 99 180 3 0 46 -81 95
-180 l90 -180 53 0 c30 0 70 7 88 16 38 18 74 76 74 118 0 33 -281 595 -311
623 -24 22 -70 43 -92 43 -7 0 -31 -9 -54 -20z"/>
<path d="M7122 5423 l3 -388 81 0 c135 1 166 35 174 189 l5 100 118 -137 c90
-105 125 -138 151 -145 66 -19 131 11 160 72 14 29 16 80 16 365 l0 331 -75 0
c-145 0 -177 -32 -185 -183 l-5 -100 -115 128 c-68 76 -128 133 -147 141 -18
8 -66 14 -108 14 l-75 0 2 -387z"/>
<path d="M7120 4521 c0 -137 50 -181 208 -181 l93 0 -145 -164 c-156 -177
-160 -184 -154 -291 l3 -60 350 0 350 0 -1 85 c-1 142 -33 170 -194 170 -59 0
-100 4 -98 9 2 5 62 76 133 156 72 81 135 157 142 169 7 11 12 58 13 104 l0
82 -350 0 -350 0 0 -79z"/>
<path d="M8170 4524 c0 -144 46 -184 209 -184 l92 0 -132 -147 c-73 -82 -140
-161 -150 -178 -14 -23 -19 -50 -19 -112 l0 -83 350 0 350 0 0 85 c0 148 -29
175 -190 175 -55 0 -100 3 -100 8 0 4 62 77 139 164 76 86 141 164 145 173 3
9 6 52 6 96 l0 79 -350 0 -350 0 0 -76z"/>
</g>
</svg>
