<?xml version="1.0" standalone="no"?>
<!DOCTYPE svg PUBLIC "-//W3C//DTD SVG 20010904//EN"
 "http://www.w3.org/TR/2001/REC-SVG-20010904/DTD/svg10.dtd">
<svg version="1.0" xmlns="http://www.w3.org/2000/svg"
 width="408.000000pt" height="247.000000pt" viewBox="0 0 408.000000 247.000000"
 preserveAspectRatio="xMidYMid meet">

<g transform="translate(0.000000,247.000000) scale(0.100000,-0.100000)"
fill="#000000" stroke="none">
<path d="M3743 2160 c-19 -11 -39 -36 -48 -57 -8 -21 -42 -63 -75 -93 -54 -49
-61 -60 -69 -106 -8 -54 -50 -144 -83 -181 -12 -13 -17 -27 -12 -35 4 -7 4
-10 -1 -6 -4 4 -27 -10 -51 -31 -24 -21 -70 -48 -101 -60 -59 -21 -145 -68
-263 -142 -221 -139 -416 -194 -765 -214 -60 -3 -138 -8 -173 -10 -97 -6 -366
21 -489 49 -61 14 -139 26 -173 26 -44 0 -73 6 -108 24 -26 13 -108 45 -182
71 -91 32 -214 88 -380 175 -275 143 -413 197 -472 186 -60 -11 -81 -35 -89
-102 -3 -33 -13 -86 -22 -118 -20 -73 -12 -139 36 -289 28 -87 36 -102 57
-107 22 -5 25 -12 28 -53 2 -32 8 -50 19 -54 20 -8 34 16 28 47 -5 23 -2 22
22 -10 59 -77 203 -211 283 -263 87 -56 259 -145 363 -188 53 -21 56 -24 34
-30 -14 -4 -31 -10 -38 -15 -7 -4 -60 -8 -118 -9 -111 -2 -179 -21 -210 -59
-12 -14 -12 -18 5 -31 34 -25 96 -34 254 -39 85 -2 239 -10 341 -17 167 -12
194 -11 272 4 105 21 146 21 182 3 77 -40 420 -56 532 -25 37 11 73 13 130 8
196 -18 577 -2 620 26 22 15 24 21 19 71 -2 30 -10 62 -17 70 -18 22 -64 44
-91 44 -32 0 -13 12 77 49 165 68 360 201 458 312 58 65 123 194 137 268 6 29
10 100 10 156 0 119 14 176 73 290 33 65 59 98 140 175 117 111 134 142 106
181 -11 15 -22 40 -25 56 -7 35 -63 73 -107 73 -18 0 -47 -9 -64 -20z m-3186
-532 c29 -18 71 -49 95 -70 37 -33 31 -31 -38 16 -45 31 -101 65 -125 77 -35
16 -38 19 -14 14 17 -3 53 -20 82 -37z m2608 -148 c-3 -5 -16 -15 -28 -21 -19
-9 -19 -8 3 10 28 23 34 26 25 11z m-2341 -58 l37 -18 -21 -25 -20 -24 -33 37
c-35 38 -49 92 -16 63 8 -9 32 -23 53 -33z m2381 -22 c-3 -5 -12 -10 -18 -10
-7 0 -6 4 3 10 19 12 23 12 15 0z m-1968 -82 c7 -6 13 -16 13 -22 0 -15 38
-51 63 -59 10 -4 34 0 53 8 l34 14 -26 -34 c-33 -44 -55 -44 -133 -5 -62 32
-71 43 -71 92 0 28 2 30 27 23 16 -4 34 -11 40 -17z m1703 -41 c0 -2 -15 -16
-32 -33 l-33 -29 29 33 c28 30 36 37 36 29z m-1823 -124 c-3 -10 -5 -4 -5 12
0 17 2 24 5 18 2 -7 2 -21 0 -30z m822 -57 c9 -6 9 -11 -1 -23 -9 -12 -25 -14
-65 -10 -64 7 -73 12 -73 41 0 23 1 23 64 11 34 -7 68 -15 75 -19z m521 5 c0
-26 -23 -33 -50 -14 -17 12 -19 17 -9 24 26 16 59 10 59 -10z"/>
<path d="M359 563 c-15 -2 -35 -13 -45 -24 -43 -48 35 -74 183 -63 84 6 111
19 99 49 -14 37 -128 55 -237 38z"/>
<path d="M3145 541 c-50 -8 -61 -15 -68 -41 -7 -28 19 -40 90 -40 81 0 133 16
133 40 0 35 -75 54 -155 41z"/>
</g>
</svg>
