<?xml version="1.0" standalone="no"?>
<!DOCTYPE svg PUBLIC "-//W3C//DTD SVG 20010904//EN"
 "http://www.w3.org/TR/2001/REC-SVG-20010904/DTD/svg10.dtd">
<svg version="1.0" xmlns="http://www.w3.org/2000/svg"
 width="375.000000pt" height="666.000000pt" viewBox="0 0 375.000000 666.000000"
 preserveAspectRatio="xMidYMid meet">

<g transform="translate(0.000000,666.000000) scale(0.100000,-0.100000)"
fill="#000000" stroke="none">
<path d="M1822 4899 c-110 -14 -211 -89 -264 -197 -19 -40 -23 -63 -23 -147 0
-85 4 -107 24 -148 33 -67 101 -134 169 -165 49 -23 70 -27 147 -27 78 0 97 4
147 28 74 36 134 96 166 165 23 49 27 70 27 152 0 79 -4 103 -23 142 -70 143
-210 217 -370 197z"/>
<path d="M1810 4080 c-109 -23 -202 -96 -252 -198 -17 -35 -24 -69 -26 -134
-4 -81 -1 -93 26 -152 36 -77 98 -140 172 -175 47 -22 69 -26 145 -26 78 0 97
4 147 28 72 35 134 97 167 167 22 47 26 68 26 150 -1 115 -22 167 -100 246
-77 78 -199 115 -305 94z"/>
<path d="M1759 3247 c-95 -36 -175 -114 -210 -206 -29 -79 -24 -194 12 -271
33 -69 96 -132 168 -168 49 -23 68 -27 146 -27 77 1 98 5 146 28 76 37 150
116 178 192 30 78 26 197 -8 267 -32 66 -91 129 -152 163 -47 26 -66 30 -149
32 -62 2 -108 -1 -131 -10z"/>
<path d="M1789 2437 c-155 -43 -259 -178 -259 -337 0 -104 28 -171 104 -245
143 -140 340 -140 482 0 81 80 107 146 102 260 -4 97 -38 174 -106 236 -84 78
-220 114 -323 86z"/>
</g>
</svg>
