<?xml version="1.0" standalone="no"?>
<!DOCTYPE svg PUBLIC "-//W3C//DTD SVG 20010904//EN"
 "http://www.w3.org/TR/2001/REC-SVG-20010904/DTD/svg10.dtd">
<svg version="1.0" xmlns="http://www.w3.org/2000/svg"
 width="260.000000pt" height="260.000000pt" viewBox="0 0 260.000000 260.000000"
 preserveAspectRatio="xMidYMid meet">

<g transform="translate(0.000000,260.000000) scale(0.100000,-0.100000)"
fill="#000000" stroke="none">
<path d="M1761 2479 c-31 -12 -50 -38 -51 -67 0 -36 16 -59 59 -83 63 -35 79
-96 36 -137 -13 -13 -26 -38 -29 -55 -2 -18 -10 -70 -16 -117 -76 -572 -433
-958 -1005 -1087 -86 -19 -150 -26 -293 -30 -176 -5 -185 -7 -212 -30 -33 -28
-46 -76 -31 -115 20 -54 243 -200 378 -248 65 -23 74 -40 21 -40 -42 0 -98
-56 -98 -100 0 -54 29 -88 105 -125 101 -48 163 -72 253 -94 407 -104 793 18
1132 359 110 111 161 175 229 289 184 306 198 671 37 1015 -76 162 -210 353
-265 376 -24 10 -30 19 -36 58 -13 93 -52 157 -129 213 -42 31 -49 33 -85 18z
m75 -74 c39 -30 84 -117 84 -162 0 -31 -2 -33 -20 -23 -12 6 -20 21 -20 36 0
40 -27 81 -75 114 -44 31 -51 40 -38 53 12 13 36 7 69 -18z m39 -268 c-11 -26
-11 -49 -3 -112 5 -44 8 -146 5 -228 -4 -151 1 -177 33 -157 13 8 15 49 15
246 0 234 0 237 22 251 20 14 26 14 48 -1 57 -38 199 -257 256 -396 53 -132
71 -214 76 -364 8 -198 -15 -310 -97 -482 -99 -206 -336 -453 -560 -584 -263
-154 -574 -181 -875 -78 -180 61 -239 104 -216 154 11 25 12 25 136 50 199 39
527 175 533 222 5 33 -14 29 -141 -32 -61 -30 -156 -68 -210 -86 -98 -33 -98
-33 -161 -17 -155 38 -340 133 -432 222 -38 36 -43 45 -36 66 8 22 16 24 73
26 146 6 330 25 417 43 278 59 522 186 698 366 204 206 320 467 363 813 11 88
22 111 52 111 16 0 17 -3 4 -33z"/>
<path d="M1863 1548 c-6 -7 -13 -40 -16 -73 -16 -159 -72 -298 -175 -434 -58
-76 -63 -85 -48 -99 14 -14 18 -14 42 9 41 38 122 157 155 228 71 152 106 381
59 381 -4 0 -12 -6 -17 -12z"/>
<path d="M2230 1381 c0 -27 19 -36 37 -18 18 18 9 37 -18 37 -12 0 -19 -7 -19
-19z"/>
<path d="M2211 1296 c-9 -11 -8 -18 5 -31 15 -15 18 -15 32 -1 13 12 13 18 2
30 -15 20 -24 20 -39 2z"/>
<path d="M1414 805 c-4 -9 -2 -21 4 -27 15 -15 44 -1 40 19 -4 23 -36 29 -44
8z"/>
<path d="M870 731 c0 -27 19 -36 37 -18 18 18 9 37 -18 37 -12 0 -19 -7 -19
-19z"/>
<path d="M1313 734 c-3 -8 -1 -20 5 -26 16 -16 42 -2 42 22 0 24 -38 28 -47 4z"/>
<path d="M747 723 c-11 -10 -8 -41 4 -49 16 -9 43 21 36 40 -7 16 -28 21 -40
9z"/>
<path d="M833 653 c-17 -6 -17 -28 0 -41 17 -14 40 1 35 23 -3 20 -16 26 -35
18z"/>
</g>
</svg>
